<?xml version="1.0" standalone="no"?>
<!DOCTYPE svg PUBLIC "-//W3C//DTD SVG 1.1//EN" "http://www.w3.org/Graphics/SVG/1.1/DTD/svg11.dtd">
<svg xmlns="http://www.w3.org/2000/svg" version="1.1" viewBox="1.522312045097351 0.9442857503890991 454.3861999511719 78.73292541503906" width="454.3861999511719" height="78.73292541503906">
<g stroke-width="2.00" fill="none" stroke-linecap="butt">
<path stroke="#667284" d="&#10;  M 168.93 1.22&#10;  Q 163.46 1.83 158.05 1.77&#10;  Q 154.31 1.73 151.45 2.11&#10;  Q 148.26 2.54 144.98 3.02&#10;  C 143.95 3.17 143.25 2.59 142.15 2.64&#10;  Q 134.67 3.02 126.67 2.11&#10;  Q 122.39 1.63 119.41 1.61&#10;  C 116.43 1.59 112.72 1.20 109.68 1.97&#10;  Q 108.31 2.32 107.12 2.11"/>
<path stroke="#667284" d="&#10;  M 169.70 18.54&#10;  Q 166.21 17.43 164.03 17.79&#10;  C 162.85 17.98 161.80 18.59 160.30 18.52&#10;  Q 154.51 18.26 149.01 19.01"/>
<path stroke="#667284" d="&#10;  M 144.83 32.14&#10;  Q 153.17 33.02 161.62 32.48&#10;  C 164.03 32.32 164.49 33.84 167.08 32.87"/>
<path stroke="#667284" d="&#10;  M 166.53 47.56&#10;  Q 166.43 46.57 164.46 47.11&#10;  Q 163.35 47.41 162.50 47.39&#10;  Q 153.62 47.11 144.73 47.87"/>
<path stroke="#667284" d="&#10;  M 143.74 60.21&#10;  Q 143.26 60.71 143.40 61.17&#10;  Q 143.55 61.68 144.08 61.68&#10;  Q 155.48 61.81 167.86 60.28"/>
<path stroke="#667284" d="&#10;  M 169.70 76.74&#10;  Q 162.99 75.90 156.51 76.19&#10;  Q 144.86 76.72 144.47 76.72&#10;  Q 127.71 76.74 110.96 76.91&#10;  Q 110.64 76.92 110.59 77.24&#10;  Q 110.57 77.39 110.53 77.58"/>
<path stroke="#667284" d="&#10;  M 351.54 1.03&#10;  Q 351.15 1.34 350.78 1.53&#10;  Q 350.38 1.74 349.94 1.72&#10;  Q 338.43 1.21 326.68 3.01&#10;  A 0.72 0.72 0.0 0 1 326.08 2.84&#10;  L 325.89 2.67&#10;  A 0.81 0.80 63.7 0 0 325.31 2.47&#10;  Q 317.72 2.80 309.79 2.12&#10;  Q 305.91 1.78 300.56 1.78&#10;  Q 295.84 1.78 291.19 1.16"/>
<path stroke="#667284" d="&#10;  M 353.95 18.54&#10;  Q 354.11 18.40 354.13 18.15&#10;  Q 354.19 17.61 353.66 17.77&#10;  Q 351.31 18.51 349.34 17.86&#10;  C 347.55 17.27 345.92 17.86 344.20 18.24&#10;  C 340.53 19.05 336.21 18.59 332.38 18.59&#10;  Q 331.57 18.60 331.46 19.52"/>
<path stroke="#667284" d="&#10;  M 327.04 32.27&#10;  L 349.39 32.81"/>
<path stroke="#667284" d="&#10;  M 350.80 47.24&#10;  Q 349.15 46.63 346.89 46.99&#10;  Q 344.38 47.39 343.07 47.34&#10;  Q 335.47 47.07 328.04 47.75"/>
<path stroke="#667284" d="&#10;  M 326.19 60.91&#10;  Q 325.37 61.53 326.76 61.59&#10;  Q 331.25 61.79 335.74 61.40&#10;  Q 342.77 60.79 350.48 60.51"/>
<path stroke="#667284" d="&#10;  M 352.18 76.77&#10;  Q 345.46 75.90 339.17 76.18&#10;  Q 328.76 76.64 327.79 76.64&#10;  Q 315.66 76.59 303.52 76.82"/>
<path stroke="#667284" d="&#10;  M 335.04 19.38&#10;  L 333.96 19.37"/>
<path stroke="#667284" d="&#10;  M 373.67 1.31&#10;  Q 391.08 2.76 408.41 2.26&#10;  Q 410.74 2.20 416.57 1.75&#10;  Q 422.14 1.31 424.75 1.64&#10;  Q 430.44 2.35 436.39 3.21"/>
<path stroke="#667284" d="&#10;  M 424.14 76.99&#10;  L 373.77 77.60"/>
<path stroke="#667284" d="&#10;  M 253.62 6.30&#10;  Q 244.51 4.19 235.56 3.86&#10;  C 230.71 3.69 226.07 2.76 221.19 2.86&#10;  C 213.59 3.01 206.21 2.51 198.62 2.59&#10;  Q 194.78 2.64 190.84 2.46"/>
<path stroke="#667284" d="&#10;  M 254.29 77.99&#10;  Q 251.52 77.98 248.88 79.44"/>
<path stroke="#667284" d="&#10;  M 224.90 76.75&#10;  Q 220.86 76.28 216.90 76.69&#10;  Q 212.24 77.17 209.58 77.10&#10;  Q 201.72 76.88 193.87 77.70"/>
<path stroke="#667284" d="&#10;  M 38.83 3.03&#10;  Q 24.47 3.19 11.00 2.89&#10;  Q 7.67 2.81 3.93 2.34"/>
<path stroke="#667284" d="&#10;  M 70.09 78.36&#10;  Q 69.26 77.40 67.34 77.63&#10;  Q 65.71 77.82 64.65 77.67&#10;  Q 61.20 77.18 57.83 77.56&#10;  Q 52.66 78.13 51.05 78.08&#10;  Q 44.61 77.84 38.75 77.17&#10;  Q 35.25 76.76 21.42 77.80"/>
<path stroke="#667284" d="&#10;  M 88.53 2.34&#10;  L 57.34 3.39"/>
</g>
<path fill="#969aa9" d="&#10;  M 168.93 1.22&#10;  Q 163.46 1.83 158.05 1.77&#10;  Q 154.31 1.73 151.45 2.11&#10;  Q 148.26 2.54 144.98 3.02&#10;  C 143.95 3.17 143.25 2.59 142.15 2.64&#10;  Q 134.67 3.02 126.67 2.11&#10;  Q 122.39 1.63 119.41 1.61&#10;  C 116.43 1.59 112.72 1.20 109.68 1.97&#10;  Q 108.31 2.32 107.12 2.11&#10;  Q 108.88 1.14 110.18 1.12&#10;  Q 120.82 0.94 136.00 1.15&#10;  Q 140.85 1.22 152.46 1.01&#10;  Q 160.63 0.86 168.93 1.22&#10;  Z"/>
<path fill="#35495e" d="&#10;  M 169.70 18.54&#10;  Q 166.21 17.43 164.03 17.79&#10;  C 162.85 17.98 161.80 18.59 160.30 18.52&#10;  Q 154.51 18.26 149.01 19.01&#10;  Q 145.77 19.45 145.16 21.37&#10;  Q 143.36 26.97 144.83 32.14&#10;  Q 153.17 33.02 161.62 32.48&#10;  C 164.03 32.32 164.49 33.84 167.08 32.87&#10;  Q 168.97 35.77 170.67 42.54&#10;  Q 171.11 44.32 170.83 45.37&#10;  Q 170.70 45.88 170.22 46.07&#10;  L 166.53 47.56&#10;  Q 166.43 46.57 164.46 47.11&#10;  Q 163.35 47.41 162.50 47.39&#10;  Q 153.62 47.11 144.73 47.87&#10;  Q 143.21 52.74 143.59 56.04&#10;  Q 143.92 58.92 143.74 60.21&#10;  Q 143.26 60.71 143.40 61.17&#10;  Q 143.55 61.68 144.08 61.68&#10;  Q 155.48 61.81 167.86 60.28&#10;  Q 169.17 65.52 170.35 70.94&#10;  Q 170.73 72.67 170.66 74.43&#10;  Q 170.59 76.14 169.70 76.74&#10;  Q 162.99 75.90 156.51 76.19&#10;  Q 144.86 76.72 144.47 76.72&#10;  Q 127.71 76.74 110.96 76.91&#10;  Q 110.64 76.92 110.59 77.24&#10;  Q 110.57 77.39 110.53 77.58&#10;  L 109.79 77.43&#10;  Q 109.29 77.33 109.05 76.86&#10;  Q 105.82 70.47 105.52 66.33&#10;  Q 103.91 43.81 104.38 20.14&#10;  C 104.49 14.73 104.97 9.34 105.32 3.93&#10;  Q 105.43 2.32 107.12 2.11&#10;  Q 108.31 2.32 109.68 1.97&#10;  C 112.72 1.20 116.43 1.59 119.41 1.61&#10;  Q 122.39 1.63 126.67 2.11&#10;  Q 134.67 3.02 142.15 2.64&#10;  C 143.25 2.59 143.95 3.17 144.98 3.02&#10;  Q 148.26 2.54 151.45 2.11&#10;  Q 154.31 1.73 158.05 1.77&#10;  Q 163.46 1.83 168.93 1.22&#10;  Q 170.52 0.85 171.29 3.95&#10;  Q 172.92 10.46 173.59 14.64&#10;  Q 173.84 16.20 173.02 17.79&#10;  Q 172.80 18.22 172.32 18.27&#10;  L 169.70 18.54&#10;  Z"/>
<path fill="#969aa9" d="&#10;  M 351.54 1.03&#10;  Q 351.15 1.34 350.78 1.53&#10;  Q 350.38 1.74 349.94 1.72&#10;  Q 338.43 1.21 326.68 3.01&#10;  A 0.72 0.72 0.0 0 1 326.08 2.84&#10;  L 325.89 2.67&#10;  A 0.81 0.80 63.7 0 0 325.31 2.47&#10;  Q 317.72 2.80 309.79 2.12&#10;  Q 305.91 1.78 300.56 1.78&#10;  Q 295.84 1.78 291.19 1.16&#10;  L 351.54 1.03&#10;  Z"/>
<path fill="#35495e" d="&#10;  M 353.95 18.54&#10;  Q 354.11 18.40 354.13 18.15&#10;  Q 354.19 17.61 353.66 17.77&#10;  Q 351.31 18.51 349.34 17.86&#10;  C 347.55 17.27 345.92 17.86 344.20 18.24&#10;  C 340.53 19.05 336.21 18.59 332.38 18.59&#10;  Q 331.57 18.60 331.46 19.52&#10;  L 329.09 19.78&#10;  A 2.20 2.19 1.9 0 0 327.17 21.57&#10;  Q 326.18 27.21 327.04 32.27&#10;  L 349.39 32.81&#10;  Q 352.81 38.11 353.68 44.36&#10;  Q 353.92 46.11 350.80 47.24&#10;  Q 349.15 46.63 346.89 46.99&#10;  Q 344.38 47.39 343.07 47.34&#10;  Q 335.47 47.07 328.04 47.75&#10;  Q 326.11 48.74 326.08 50.50&#10;  Q 326.00 55.42 325.84 60.32&#10;  Q 325.84 60.53 325.91 60.65&#10;  Q 326.01 60.81 326.19 60.91&#10;  Q 325.37 61.53 326.76 61.59&#10;  Q 331.25 61.79 335.74 61.40&#10;  Q 342.77 60.79 350.48 60.51&#10;  Q 351.22 65.65 352.79 70.74&#10;  Q 353.69 73.66 352.18 76.77&#10;  Q 345.46 75.90 339.17 76.18&#10;  Q 328.76 76.64 327.79 76.64&#10;  Q 315.66 76.59 303.52 76.82&#10;  L 292.50 77.32&#10;  A 1.19 1.19 0.0 0 1 291.38 76.67&#10;  Q 287.61 69.07 287.31 60.24&#10;  Q 286.43 34.05 287.32 7.51&#10;  C 287.37 6.06 287.66 3.41 288.96 2.33&#10;  Q 289.89 1.55 291.19 1.16&#10;  Q 295.84 1.78 300.56 1.78&#10;  Q 305.91 1.78 309.79 2.12&#10;  Q 317.72 2.80 325.31 2.47&#10;  A 0.81 0.80 63.7 0 1 325.89 2.67&#10;  L 326.08 2.84&#10;  A 0.72 0.72 0.0 0 0 326.68 3.01&#10;  Q 338.43 1.21 349.94 1.72&#10;  Q 350.38 1.74 350.78 1.53&#10;  Q 351.15 1.34 351.54 1.03&#10;  Q 353.44 1.76 354.12 5.19&#10;  Q 355.07 9.98 355.83 14.87&#10;  Q 356.03 16.16 355.70 17.83&#10;  Q 355.60 18.34 355.12 18.55&#10;  Q 354.61 18.77 353.95 18.54&#10;  Z"/>
<path fill="#35495e" d="&#10;  M 373.67 1.31&#10;  Q 391.08 2.76 408.41 2.26&#10;  Q 410.74 2.20 416.57 1.75&#10;  Q 422.14 1.31 424.75 1.64&#10;  Q 430.44 2.35 436.39 3.21&#10;  Q 442.70 5.26 447.41 10.60&#10;  C 456.62 21.04 457.02 35.74 454.75 49.12&#10;  Q 453.05 59.14 446.62 66.62&#10;  C 441.47 72.62 431.81 75.73 424.14 76.99&#10;  L 373.77 77.60&#10;  Q 372.16 77.92 371.57 75.07&#10;  Q 371.36 74.04 371.30 71.90&#10;  Q 370.18 31.93 370.66 4.94&#10;  Q 370.73 0.98 373.67 1.31&#10;  Z&#10;  M 409.89 13.31&#10;  Q 408.74 13.79 408.67 15.04&#10;  C 407.84 30.96 408.28 45.88 407.33 61.38&#10;  A 1.45 1.44 -2.1 0 0 408.97 62.90&#10;  Q 412.86 62.36 413.93 58.62&#10;  Q 419.81 38.11 416.09 17.45&#10;  C 415.52 14.28 413.62 11.75 409.89 13.31&#10;  Z"/>
<path fill="#969aa9" d="&#10;  M 436.39 3.21&#10;  Q 430.44 2.35 424.75 1.64&#10;  Q 422.14 1.31 416.57 1.75&#10;  Q 410.74 2.20 408.41 2.26&#10;  Q 391.08 2.76 373.67 1.31&#10;  Q 408.82 0.67 428.02 1.15&#10;  Q 431.31 1.23 436.39 3.21&#10;  Z"/>
<path fill="#969aa9" d="&#10;  M 253.62 6.30&#10;  Q 244.51 4.19 235.56 3.86&#10;  C 230.71 3.69 226.07 2.76 221.19 2.86&#10;  C 213.59 3.01 206.21 2.51 198.62 2.59&#10;  Q 194.78 2.64 190.84 2.46&#10;  Q 193.94 1.32 196.00 1.41&#10;  Q 209.86 2.03 223.74 2.08&#10;  C 229.29 2.09 234.74 2.73 240.25 3.20&#10;  Q 247.08 3.78 253.62 6.30&#10;  Z"/>
<path fill="#969aa9" d="&#10;  M 38.83 3.03&#10;  Q 24.47 3.19 11.00 2.89&#10;  Q 7.67 2.81 3.93 2.34&#10;  Q 21.39 1.20 38.83 3.03&#10;  Z"/>
<path fill="#969aa9" d="&#10;  M 88.53 2.34&#10;  L 57.34 3.39&#10;  Q 59.11 2.23 62.26 2.18&#10;  Q 74.87 1.98 87.50 2.06&#10;  Q 88.04 2.07 88.53 2.34&#10;  Z"/>
<path fill="#35495e" d="&#10;  M 3.93 2.34&#10;  Q 7.67 2.81 11.00 2.89&#10;  Q 24.47 3.19 38.83 3.03&#10;  Q 42.50 23.41 46.63 43.91&#10;  C 47.04 45.99 47.02 48.16 47.74 50.16&#10;  Q 48.10 51.16 48.30 50.11&#10;  Q 48.85 47.26 49.31 44.04&#10;  Q 51.77 26.91 55.89 8.63&#10;  Q 56.53 5.80 57.34 3.39&#10;  L 88.53 2.34&#10;  L 89.00 2.47&#10;  A 0.92 0.90 0.2 0 1 89.63 3.09&#10;  Q 90.57 6.20 89.91 9.16&#10;  C 87.49 19.97 85.21 30.61 82.29 41.16&#10;  Q 77.27 59.28 71.83 77.28&#10;  Q 71.59 78.09 70.09 78.36&#10;  Q 69.26 77.40 67.34 77.63&#10;  Q 65.71 77.82 64.65 77.67&#10;  Q 61.20 77.18 57.83 77.56&#10;  Q 52.66 78.13 51.05 78.08&#10;  Q 44.61 77.84 38.75 77.17&#10;  Q 35.25 76.76 21.42 77.80&#10;  Q 20.32 78.60 19.65 76.36&#10;  Q 13.91 57.24 8.55 37.99&#10;  Q 3.69 20.53 1.64 6.78&#10;  Q 0.99 2.41 3.93 2.34&#10;  Z"/>
<path fill="#35495e" d="&#10;  M 190.84 2.46&#10;  Q 194.78 2.64 198.62 2.59&#10;  C 206.21 2.51 213.59 3.01 221.19 2.86&#10;  C 226.07 2.76 230.71 3.69 235.56 3.86&#10;  Q 244.51 4.19 253.62 6.30&#10;  Q 259.75 7.73 264.11 12.13&#10;  Q 265.84 13.87 266.83 17.08&#10;  Q 269.57 25.95 266.03 34.14&#10;  C 264.52 37.62 261.39 39.74 258.41 41.83&#10;  A 1.11 1.10 -30.3 0 0 258.04 43.21&#10;  C 261.01 49.50 266.23 55.64 270.33 60.96&#10;  Q 271.50 62.48 272.30 64.36&#10;  Q 272.98 65.96 271.51 66.89&#10;  Q 267.28 69.58 263.62 72.62&#10;  Q 261.20 74.63 254.29 77.99&#10;  Q 251.52 77.98 248.88 79.44&#10;  Q 246.58 76.95 244.27 74.33&#10;  Q 242.01 71.77 240.18 69.16&#10;  Q 234.12 60.52 228.40 51.91&#10;  Q 226.49 49.05 226.50 52.49&#10;  Q 226.51 62.60 225.84 74.53&#10;  Q 225.74 76.22 224.90 76.75&#10;  Q 220.86 76.28 216.90 76.69&#10;  Q 212.24 77.17 209.58 77.10&#10;  Q 201.72 76.88 193.87 77.70&#10;  L 191.78 77.03&#10;  Q 191.28 76.87 191.06 76.39&#10;  Q 190.19 74.56 190.04 72.39&#10;  C 189.22 60.34 187.90 48.42 187.81 36.71&#10;  Q 187.73 25.42 188.28 14.33&#10;  Q 188.51 9.75 187.92 5.20&#10;  A 1.47 1.44 -34.1 0 1 188.11 4.26&#10;  Q 189.12 2.52 190.84 2.46&#10;  Z&#10;  M 224.93 31.98&#10;  A 0.88 0.88 0.0 0 0 225.96 32.90&#10;  Q 230.12 32.17 234.34 30.14&#10;  Q 238.93 27.92 238.29 22.62&#10;  C 237.49 15.90 231.25 16.64 226.33 16.68&#10;  A 0.39 0.38 0.8 0 0 225.95 17.04&#10;  L 224.93 31.98&#10;  Z"/>
<path fill="#969aa9" d="&#10;  M 169.70 18.54&#10;  C 167.77 19.07 166.17 18.25 164.33 18.52&#10;  C 162.29 18.81 160.23 19.24 158.20 19.22&#10;  Q 153.61 19.19 149.01 19.01&#10;  Q 154.51 18.26 160.30 18.52&#10;  C 161.80 18.59 162.85 17.98 164.03 17.79&#10;  Q 166.21 17.43 169.70 18.54&#10;  Z"/>
<path fill="#969aa9" d="&#10;  M 353.95 18.54&#10;  C 352.78 18.66 351.67 18.95 350.49 18.87&#10;  Q 346.72 18.60 343.22 19.26&#10;  C 340.48 19.78 337.80 19.58 335.04 19.38&#10;  L 333.96 19.37&#10;  L 331.46 19.52&#10;  Q 331.57 18.60 332.38 18.59&#10;  C 336.21 18.59 340.53 19.05 344.20 18.24&#10;  C 345.92 17.86 347.55 17.27 349.34 17.86&#10;  Q 351.31 18.51 353.66 17.77&#10;  Q 354.19 17.61 354.13 18.15&#10;  Q 354.11 18.40 353.95 18.54&#10;  Z"/>
<path fill="#35495e" d="&#10;  M 335.04 19.38&#10;  L 333.96 19.37&#10;  L 335.04 19.38&#10;  Z"/>
<path fill="#969aa9" d="&#10;  M 167.08 32.87&#10;  C 164.49 33.84 164.03 32.32 161.62 32.48&#10;  Q 153.17 33.02 144.83 32.14&#10;  Q 153.20 32.25 160.66 31.75&#10;  Q 162.03 31.66 163.85 32.19&#10;  Q 165.22 32.59 167.08 32.87&#10;  Z"/>
<path fill="#969aa9" d="&#10;  M 349.39 32.81&#10;  L 327.04 32.27&#10;  Q 335.55 32.05 343.16 31.80&#10;  Q 344.49 31.76 346.27 32.19&#10;  Q 347.56 32.51 349.39 32.81&#10;  Z"/>
<path fill="#969aa9" d="&#10;  M 166.53 47.56&#10;  L 144.73 47.87&#10;  Q 153.62 47.11 162.50 47.39&#10;  Q 163.35 47.41 164.46 47.11&#10;  Q 166.43 46.57 166.53 47.56&#10;  Z"/>
<path fill="#969aa9" d="&#10;  M 350.80 47.24&#10;  Q 339.59 48.72 328.04 47.75&#10;  Q 335.47 47.07 343.07 47.34&#10;  Q 344.38 47.39 346.89 46.99&#10;  Q 349.15 46.63 350.80 47.24&#10;  Z"/>
<path fill="#969aa9" d="&#10;  M 167.86 60.28&#10;  Q 155.48 61.81 144.08 61.68&#10;  Q 143.55 61.68 143.40 61.17&#10;  Q 143.26 60.71 143.74 60.21&#10;  Q 144.58 60.97 146.00 60.80&#10;  Q 156.44 59.62 167.86 60.28&#10;  Z"/>
<path fill="#969aa9" d="&#10;  M 350.48 60.51&#10;  Q 342.77 60.79 335.74 61.40&#10;  Q 331.25 61.79 326.76 61.59&#10;  Q 325.37 61.53 326.19 60.91&#10;  C 329.91 61.18 333.94 60.28 336.97 60.20&#10;  Q 342.83 60.03 348.68 60.14&#10;  Q 349.26 60.15 350.48 60.51&#10;  Z"/>
<path fill="#969aa9" d="&#10;  M 169.70 76.74&#10;  Q 162.61 77.49 155.75 76.93&#10;  C 153.89 76.78 151.47 77.86 149.38 77.86&#10;  Q 131.56 77.86 113.75 77.77&#10;  Q 112.13 77.76 110.53 77.58&#10;  Q 110.57 77.39 110.59 77.24&#10;  Q 110.64 76.92 110.96 76.91&#10;  Q 127.71 76.74 144.47 76.72&#10;  Q 144.86 76.72 156.51 76.19&#10;  Q 162.99 75.90 169.70 76.74&#10;  Z"/>
<path fill="#969aa9" d="&#10;  M 352.18 76.77&#10;  C 349.79 76.95 347.44 77.26 345.15 77.12&#10;  C 339.28 76.74 333.61 77.47 327.93 77.37&#10;  Q 315.74 77.15 303.52 76.82&#10;  Q 315.66 76.59 327.79 76.64&#10;  Q 328.76 76.64 339.17 76.18&#10;  Q 345.46 75.90 352.18 76.77&#10;  Z"/>
<path fill="#969aa9" d="&#10;  M 224.90 76.75&#10;  Q 221.52 77.68 218.50 77.81&#10;  Q 206.27 78.37 193.87 77.70&#10;  Q 201.72 76.88 209.58 77.10&#10;  Q 212.24 77.17 216.90 76.69&#10;  Q 220.86 76.28 224.90 76.75&#10;  Z"/>
<path fill="#969aa9" d="&#10;  M 424.14 76.99&#10;  Q 418.17 77.86 415.75 77.93&#10;  Q 395.01 78.49 373.77 77.60&#10;  L 424.14 76.99&#10;  Z"/>
<path fill="#969aa9" d="&#10;  M 70.09 78.36&#10;  Q 59.05 78.75 48.15 78.78&#10;  Q 47.45 78.78 39.38 78.23&#10;  Q 34.25 77.88 28.24 78.73&#10;  Q 25.52 79.12 21.42 77.80&#10;  Q 35.25 76.76 38.75 77.17&#10;  Q 44.61 77.84 51.05 78.08&#10;  Q 52.66 78.13 57.83 77.56&#10;  Q 61.20 77.18 64.65 77.67&#10;  Q 65.71 77.82 67.34 77.63&#10;  Q 69.26 77.40 70.09 78.36&#10;  Z"/>
<path fill="#969aa9" d="&#10;  M 254.29 77.99&#10;  C 252.84 78.79 250.43 80.25 248.88 79.44&#10;  Q 251.52 77.98 254.29 77.99&#10;  Z"/>
</svg>